0
SECTION
2
HEADER
9
$ACADVER
1
AC1015
9
$INSUNITS
70
4
9
$EXTMIN
10
-1000.0
20
-1000.0
30
0.0
9
$EXTMAX
10
1000.0
20
1000.0
30
0.0
9
$LTSCALE
40
1.0
0
ENDSEC
0
SECTION
2
TABLES
0
TABLE
2
LTYPE
70
2
0
LTYPE
2
CONTINUOUS
70
0
3
Continuous
72
65
73
0
40
0
0
LTYPE
2
DASHED
70
0
3
Dashed
72
65
73
2
40
19.049999999999997
49
12.7
74
0
49
-6.35
74
0
0
LTYPE
2
CENTER
70
0
3
Center
72
65
73
4
40
50.800000000000004
49
31.75
74
0
49
-6.35
74
0
49
6.35
74
0
49
-6.35
74
0
0
ENDTAB
0
TABLE
2
LAYER
70
4
0
LAYER
2
0
70
0
62
7
6
CONTINUOUS
370
25
0
LAYER
2
WALLS
70
0
62
1
6
CONTINUOUS
370
25
0
LAYER
2
DIMS
70
0
62
3
6
DASHED
370
25
0
LAYER
2
HIDDEN
70
0
62
5
6
CENTER
370
25
0
ENDTAB
0
ENDSEC
0
SECTION
2
BLOCKS
0
ENDSEC
0
SECTION
2
ENTITIES
0
LWPOLYLINE
8
WALLS
90
4
70
1
10
0
20
0
10
200
20
0
10
200
20
150
10
0
20
150
0
LINE
8
DIMS
10
10
20
10
30
0.0
11
10
21
140
31
0.0
0
LINE
8
DIMS
10
15
20
10
30
0.0
11
15
21
140
31
0.0
0
LINE
8
DIMS
10
20
20
10
30
0.0
11
20
21
140
31
0.0
0
LINE
8
DIMS
10
25
20
10
30
0.0
11
25
21
140
31
0.0
0
LINE
8
DIMS
10
30
20
10
30
0.0
11
30
21
140
31
0.0
0
LINE
8
DIMS
10
35
20
10
30
0.0
11
35
21
140
31
0.0
0
LINE
8
DIMS
10
40
20
10
30
0.0
11
40
21
140
31
0.0
0
LINE
8
DIMS
10
45
20
10
30
0.0
11
45
21
140
31
0.0
0
LINE
8
DIMS
10
50
20
10
30
0.0
11
50
21
140
31
0.0
0
LINE
8
DIMS
10
55
20
10
30
0.0
11
55
21
140
31
0.0
0
CIRCLE
8
0
62
2
10
100
20
75
30
0.0
40
40
0
CIRCLE
8
HIDDEN
10
100
20
75
30
0.0
40
30
0
ARC
8
0
62
5
10
100
20
75
30
0.0
40
50
50
0
51
90
0
ARC
8
0
62
6
10
100
20
75
30
0.0
40
55
50
270
51
45
0
ARC
8
0
62
1
10
100
20
75
30
0.0
40
60
50
-30
51
30
0
POINT
8
0
62
4
10
170.0
20
75.0
30
0.0
0
POINT
8
0
62
4
10
166.57395614066075
20
96.63118960624632
30
0.0
0
POINT
8
0
62
4
10
156.63118960624632
20
116.14496766047313
30
0.0
0
POINT
8
0
62
4
10
141.14496766047313
20
131.63118960624632
30
0.0
0
POINT
8
0
62
4
10
121.63118960624632
20
141.57395614066075
30
0.0
0
POINT
8
0
62
4
10
100.0
20
145.0
30
0.0
0
POINT
8
0
62
4
10
78.36881039375369
20
141.57395614066075
30
0.0
0
POINT
8
0
62
4
10
58.855032339526886
20
131.63118960624632
30
0.0
0
POINT
8
0
62
4
10
43.368810393753684
20
116.14496766047313
30
0.0
0
POINT
8
0
62
4
10
33.42604385933926
20
96.63118960624632
30
0.0
0
POINT
8
0
62
4
10
30.0
20
75.00000000000001
30
0.0
0
POINT
8
0
62
4
10
33.42604385933923
20
53.36881039375372
30
0.0
0
POINT
8
0
62
4
10
43.36881039375368
20
33.855032339526886
30
0.0
0
POINT
8
0
62
4
10
58.85503233952687
20
18.368810393753684
30
0.0
0
POINT
8
0
62
4
10
78.36881039375368
20
8.42604385933926
30
0.0
0
POINT
8
0
62
4
10
99.99999999999999
20
5.0
30
0.0
0
POINT
8
0
62
4
10
121.63118960624631
20
8.426043859339245
30
0.0
0
POINT
8
0
62
4
10
141.1449676604731
20
18.36881039375367
30
0.0
0
POINT
8
0
62
4
10
156.63118960624632
20
33.855032339526865
30
0.0
0
POINT
8
0
62
4
10
166.57395614066075
20
53.36881039375366
30
0.0
0
LINE
8
0
62
256
10
0
20
0
30
0.0
11
200
21
150
31
0.0
0
LINE
8
0
62
0
10
0
20
150
30
0.0
11
200
21
0
31
0.0
0
ENDSEC
0
EOF
