0
SECTION
2
HEADER
9
$ACADVER
1
AC1021
9
$DWGCODEPAGE
3
ANSI_1252
9
$INSUNITS
70
4
9
$EXTMIN
10
-1000.0
20
-1000.0
30
0.0
9
$EXTMAX
10
1000.0
20
1000.0
30
0.0
9
$LTSCALE
40
1.0
0
ENDSEC
0
SECTION
2
TABLES
0
TABLE
2
LTYPE
70
2
0
LTYPE
2
CONTINUOUS
70
0
3
Continuous
72
65
73
0
40
0
0
LTYPE
2
DASHED
70
0
3
Dashed
72
65
73
2
40
19.049999999999997
49
12.7
74
0
49
-6.35
74
0
0
LTYPE
2
CENTER
70
0
3
Center
72
65
73
4
40
50.800000000000004
49
31.75
74
0
49
-6.35
74
0
49
6.35
74
0
49
-6.35
74
0
0
ENDTAB
0
TABLE
2
LAYER
70
8
0
LAYER
2
0
70
0
62
7
6
CONTINUOUS
370
25
0
LAYER
2
OUTLINE
70
0
62
7
6
CONTINUOUS
370
25
0
LAYER
2
HIDDEN
70
0
62
8
6
DASHED
370
25
0
LAYER
2
CENTRE
70
0
62
4
6
CENTER
370
25
0
LAYER
2
DIMENSION
70
0
62
3
6
CONTINUOUS
370
25
0
LAYER
2
HATCH
70
0
62
8
6
CONTINUOUS
370
25
0
LAYER
2
TEXT
70
0
62
2
6
CONTINUOUS
370
25
0
LAYER
2
BORDER
70
0
62
7
6
CONTINUOUS
370
25
0
ENDTAB
0
ENDSEC
0
SECTION
2
BLOCKS
0
BLOCK
8
0
2
BOLT
70
0
10
0
20
0
30
0.0
3
BOLT
0
CIRCLE
8
0
62
0
10
0
20
0
30
0.0
40
4.0
0
CIRCLE
8
0
62
0
10
0
20
0
30
0.0
40
2.6
0
LINE
8
0
62
0
10
-5.2
20
0
30
0.0
11
5.2
21
0
31
0.0
0
LINE
8
0
62
0
10
0
20
-5.2
30
0.0
11
0
21
5.2
31
0.0
0
ENDBLK
8
0
0
ENDSEC
0
SECTION
2
ENTITIES
0
LWPOLYLINE
8
OUTLINE
90
8
70
1
10
20
20
40
10
20
20
130
42
0.4142135623730951
10
28
20
138
10
112
20
138
42
0.4142135623730951
10
120
20
130
10
120
20
40
42
0.4142135623730951
10
112
20
32
10
28
20
32
42
0.4142135623730951
0
CIRCLE
8
OUTLINE
10
70
20
96
30
0.0
40
30
0
CIRCLE
8
OUTLINE
10
70
20
96
30
0.0
40
22
0
CIRCLE
8
HIDDEN
10
70
20
96
30
0.0
40
34
0
INSERT
8
OUTLINE
2
BOLT
10
70.0
20
140.0
30
0.0
41
1.0
42
1.0
43
1.0
50
0.0
0
INSERT
8
OUTLINE
2
BOLT
10
31.894882233484694
20
118.0
30
0.0
41
1.0
42
1.0
43
1.0
50
0.0
0
INSERT
8
OUTLINE
2
BOLT
10
31.8948822334847
20
74.0
30
0.0
41
1.0
42
1.0
43
1.0
50
0.0
0
INSERT
8
OUTLINE
2
BOLT
10
69.99999999999999
20
52.0
30
0.0
41
1.0
42
1.0
43
1.0
50
0.0
0
INSERT
8
OUTLINE
2
BOLT
10
108.10511776651529
20
73.99999999999997
30
0.0
41
1.0
42
1.0
43
1.0
50
0.0
0
INSERT
8
OUTLINE
2
BOLT
10
108.10511776651529
20
118.0
30
0.0
41
1.0
42
1.0
43
1.0
50
0.0
0
CIRCLE
8
CENTRE
10
70
20
96
30
0.0
40
44
0
LINE
8
CENTRE
10
28
20
96
30
0.0
11
112
21
96
31
0.0
0
LINE
8
CENTRE
10
70
20
24
30
0.0
11
70
21
146
31
0.0
0
LWPOLYLINE
8
OUTLINE
90
4
70
1
10
31
20
44
42
1.0
10
41
20
44
10
41
20
60
42
1.0
10
31
20
60
0
LWPOLYLINE
8
OUTLINE
90
4
70
1
10
99
20
44
42
1.0
10
109
20
44
10
109
20
60
42
1.0
10
99
20
60
0
LWPOLYLINE
8
OUTLINE
90
4
70
1
10
150
20
40
10
196
20
40
10
196
20
138
10
150
20
138
0
LWPOLYLINE
8
OUTLINE
90
4
70
1
10
164
20
66
10
182
20
66
10
182
20
112
10
164
20
112
0
LINE
8
HATCH
10
150
20
45.0
30
0.0
11
155.0
21
40
31
0.0
0
LINE
8
HATCH
10
150
20
50.0
30
0.0
11
160.0
21
40
31
0.0
0
LINE
8
HATCH
10
150
20
55.0
30
0.0
11
165.0
21
40
31
0.0
0
LINE
8
HATCH
10
150
20
60.0
30
0.0
11
170.0
21
40
31
0.0
0
LINE
8
HATCH
10
150
20
65.0
30
0.0
11
175.0
21
40
31
0.0
0
LINE
8
HATCH
10
150
20
70.0
30
0.0
11
180.0
21
40
31
0.0
0
LINE
8
HATCH
10
150
20
75.0
30
0.0
11
185.0
21
40
31
0.0
0
LINE
8
HATCH
10
150
20
80.0
30
0.0
11
190.0
21
40
31
0.0
0
LINE
8
HATCH
10
150
20
85.0
30
0.0
11
164.0
21
71.0
31
0.0
0
LINE
8
HATCH
10
169.0
20
66.0
30
0.0
11
195.0
21
40
31
0.0
0
LINE
8
HATCH
10
150
20
90.0
30
0.0
11
164.0
21
76.0
31
0.0
0
LINE
8
HATCH
10
174.0
20
66.0
30
0.0
11
196
21
44.0
31
0.0
0
LINE
8
HATCH
10
150
20
95.0
30
0.0
11
164.0
21
81.0
31
0.0
0
LINE
8
HATCH
10
179.0
20
66.0
30
0.0
11
196
21
49.0
31
0.0
0
LINE
8
HATCH
10
150
20
100.0
30
0.0
11
164.0
21
86.0
31
0.0
0
LINE
8
HATCH
10
182.0
20
68.0
30
0.0
11
196
21
54.0
31
0.0
0
LINE
8
HATCH
10
150
20
105.0
30
0.0
11
164.0
21
91.0
31
0.0
0
LINE
8
HATCH
10
182.0
20
73.0
30
0.0
11
196
21
59.0
31
0.0
0
LINE
8
HATCH
10
150
20
110.0
30
0.0
11
164.0
21
96.0
31
0.0
0
LINE
8
HATCH
10
182.0
20
78.0
30
0.0
11
196
21
64.0
31
0.0
0
LINE
8
HATCH
10
150
20
115.0
30
0.0
11
164.0
21
101.0
31
0.0
0
LINE
8
HATCH
10
182.0
20
83.0
30
0.0
11
196
21
69.0
31
0.0
0
LINE
8
HATCH
10
150
20
120.0
30
0.0
11
164.0
21
106.0
31
0.0
0
LINE
8
HATCH
10
182.0
20
88.0
30
0.0
11
196
21
74.0
31
0.0
0
LINE
8
HATCH
10
150
20
125.0
30
0.0
11
164.0
21
111.0
31
0.0
0
LINE
8
HATCH
10
182.0
20
93.0
30
0.0
11
196
21
79.0
31
0.0
0
LINE
8
HATCH
10
150
20
130.0
30
0.0
11
168.0
21
112.0
31
0.0
0
LINE
8
HATCH
10
182.0
20
98.0
30
0.0
11
196
21
84.0
31
0.0
0
LINE
8
HATCH
10
150
20
135.0
30
0.0
11
173.0
21
112.0
31
0.0
0
LINE
8
HATCH
10
182.0
20
103.0
30
0.0
11
196
21
89.0
31
0.0
0
LINE
8
HATCH
10
152.0
20
138
30
0.0
11
178.0
21
112.0
31
0.0
0
LINE
8
HATCH
10
182.0
20
108.0
30
0.0
11
196
21
94.0
31
0.0
0
LINE
8
HATCH
10
157.0
20
138
30
0.0
11
196
21
99.0
31
0.0
0
LINE
8
HATCH
10
162.0
20
138
30
0.0
11
196
21
104.0
31
0.0
0
LINE
8
HATCH
10
167.0
20
138
30
0.0
11
196
21
109.0
31
0.0
0
LINE
8
HATCH
10
172.0
20
138
30
0.0
11
196
21
114.0
31
0.0
0
LINE
8
HATCH
10
177.0
20
138
30
0.0
11
196
21
119.0
31
0.0
0
LINE
8
HATCH
10
182.0
20
138
30
0.0
11
196
21
124.0
31
0.0
0
LINE
8
HATCH
10
187.0
20
138
30
0.0
11
196
21
129.0
31
0.0
0
LINE
8
HATCH
10
192.0
20
138
30
0.0
11
196
21
134.0
31
0.0
0
LINE
8
CENTRE
10
144
20
96
30
0.0
11
202
21
96
31
0.0
0
LINE
8
DIMENSION
10
20
20
14
30
0.0
11
20
21
26
31
0.0
0
LINE
8
DIMENSION
10
120
20
14
30
0.0
11
120
21
26
31
0.0
0
LINE
8
DIMENSION
10
20
20
20
30
0.0
11
120
21
20
31
0.0
0
LWPOLYLINE
8
DIMENSION
90
3
70
1
10
20
20
20
10
24
20
21.4
10
24
20
18.6
0
LWPOLYLINE
8
DIMENSION
90
3
70
1
10
120
20
20
10
116
20
21.4
10
116
20
18.6
0
TEXT
8
TEXT
10
70.0
20
23
30
0.0
40
5
1
100
50
0.0
72
1
11
70.0
21
23
31
0.0
73
0
0
LINE
8
DIMENSION
10
150
20
166
30
0.0
11
150
21
178
31
0.0
0
LINE
8
DIMENSION
10
196
20
166
30
0.0
11
196
21
178
31
0.0
0
LINE
8
DIMENSION
10
150
20
172
30
0.0
11
196
21
172
31
0.0
0
LWPOLYLINE
8
DIMENSION
90
3
70
1
10
150
20
172
10
154
20
173.4
10
154
20
170.6
0
LWPOLYLINE
8
DIMENSION
90
3
70
1
10
196
20
172
10
192
20
173.4
10
192
20
170.6
0
TEXT
8
TEXT
10
173.0
20
175
30
0.0
40
5
1
46
50
0.0
72
1
11
173.0
21
175
31
0.0
73
0
0
TEXT
8
TEXT
10
70
20
152
30
0.0
40
6
1
BEARING BRACKET
50
0.0
72
1
11
70
21
152
31
0.0
73
0
0
TEXT
8
TEXT
10
173
20
152
30
0.0
40
6
1
SECTION A-A
50
0.0
72
1
11
173
21
152
31
0.0
73
0
0
TEXT
8
TEXT
10
70
20
88
30
0.0
40
5
1
Ø44 H7
50
0.0
72
1
11
70
21
88
31
0.0
73
0
0
TEXT
8
TEXT
10
70
20
12
30
0.0
40
4
1
TOLERANCE ±0.1 UNLESS STATED
50
0.0
72
1
11
70
21
12
31
0.0
73
0
0
LWPOLYLINE
8
BORDER
90
4
70
1
10
0
20
0
10
250
20
0
10
250
20
180
10
0
20
180
0
LWPOLYLINE
8
BORDER
90
4
70
1
10
4
20
4
10
246
20
4
10
246
20
176
10
4
20
176
0
LWPOLYLINE
8
BORDER
90
4
70
1
10
156
20
4
10
246
20
4
10
246
20
34
10
156
20
34
0
LINE
8
BORDER
10
156
20
24
30
0.0
11
246
21
24
31
0.0
0
LINE
8
BORDER
10
156
20
14
30
0.0
11
246
21
14
31
0.0
0
LINE
8
BORDER
10
201
20
14
30
0.0
11
201
21
24
31
0.0
0
TEXT
8
TEXT
10
159
20
27
30
0.0
40
4.0
1
BEARING BRACKET
50
0.0
72
0
73
0
0
TEXT
8
TEXT
10
159
20
17
30
0.0
40
3.2
1
SCALE 1:1
50
0.0
72
0
73
0
0
TEXT
8
TEXT
10
204
20
17
30
0.0
40
3.2
1
SHEET 1/1
50
0.0
72
0
73
0
0
TEXT
8
TEXT
10
159
20
7.5
30
0.0
40
3.0
1
opendxfviewer sample
50
0.0
72
0
73
0
0
ENDSEC
0
EOF
