0
SECTION
2
HEADER
9
$ACADVER
1
AC1021
9
$DWGCODEPAGE
3
ANSI_1252
9
$INSUNITS
70
4
9
$EXTMIN
10
-1000.0
20
-1000.0
30
0.0
9
$EXTMAX
10
1000.0
20
1000.0
30
0.0
9
$LTSCALE
40
1.0
0
ENDSEC
0
SECTION
2
TABLES
0
TABLE
2
LTYPE
70
2
0
LTYPE
2
CONTINUOUS
70
0
3
Continuous
72
65
73
0
40
0
0
LTYPE
2
DASHED
70
0
3
Dashed
72
65
73
2
40
19.049999999999997
49
12.7
74
0
49
-6.35
74
0
0
LTYPE
2
CENTER
70
0
3
Center
72
65
73
4
40
50.800000000000004
49
31.75
74
0
49
-6.35
74
0
49
6.35
74
0
49
-6.35
74
0
0
ENDTAB
0
TABLE
2
LAYER
70
2
0
LAYER
2
0
70
0
62
7
6
CONTINUOUS
370
25
0
LAYER
2
NOTES
70
0
62
2
6
CONTINUOUS
370
25
0
ENDTAB
0
ENDSEC
0
SECTION
2
BLOCKS
0
ENDSEC
0
SECTION
2
ENTITIES
0
LINE
8
0
62
1
10
0
20
100
30
0.0
11
0
21
100
31
0.0
0
POINT
8
0
62
1
10
0
20
100
30
0.0
0
TEXT
8
NOTES
10
0
20
100
30
0.0
40
5
1
left/base
50
0.0
72
0
73
0
0
LINE
8
0
62
1
10
0
20
80
30
0.0
11
0
21
80
31
0.0
0
POINT
8
0
62
1
10
0
20
80
30
0.0
0
TEXT
8
NOTES
10
0
20
80
30
0.0
40
5
1
center/base
50
0.0
72
1
11
0
21
80
31
0.0
73
0
0
LINE
8
0
62
1
10
0
20
60
30
0.0
11
0
21
60
31
0.0
0
POINT
8
0
62
1
10
0
20
60
30
0.0
0
TEXT
8
NOTES
10
0
20
60
30
0.0
40
5
1
right/base
50
0.0
72
2
11
0
21
60
31
0.0
73
0
0
LINE
8
0
62
1
10
0
20
40
30
0.0
11
0
21
40
31
0.0
0
POINT
8
0
62
1
10
0
20
40
30
0.0
0
TEXT
8
NOTES
10
0
20
40
30
0.0
40
5
1
left/bottom
50
0.0
72
0
11
0
21
40
31
0.0
73
1
0
LINE
8
0
62
1
10
0
20
20
30
0.0
11
0
21
20
31
0.0
0
POINT
8
0
62
1
10
0
20
20
30
0.0
0
TEXT
8
NOTES
10
0
20
20
30
0.0
40
5
1
center/middle
50
0.0
72
1
11
0
21
20
31
0.0
73
2
0
LINE
8
0
62
1
10
0
20
0
30
0.0
11
0
21
0
31
0.0
0
POINT
8
0
62
1
10
0
20
0
30
0.0
0
TEXT
8
NOTES
10
0
20
0
30
0.0
40
5
1
right/top
50
0.0
72
2
11
0
21
0
31
0.0
73
3
0
TEXT
8
0
62
3
10
0
20
130
30
0.0
40
8
1
Rotated 30deg
50
30.0
72
0
73
0
0
TEXT
8
0
62
5
10
0
20
160
30
0.0
40
8
1
UPPER & lower 0123
50
0.0
72
0
73
0
0
TEXT
8
0
62
3
10
-20
20
0
30
0.0
40
6
1
Reads upward
50
90.0
72
0
73
0
0
TEXT
8
0
62
3
10
-30
20
160
30
0.0
40
6
1
Reads downward
50
270.0
41
0.8
72
0
73
0
0
TEXT
8
0
62
6
10
120
20
150
30
0.0
40
6
1
Backward
50
0.0
71
2
72
0
73
0
0
TEXT
8
0
62
6
10
120
20
135
30
0.0
40
6
1
Upside down
50
0.0
71
4
72
0
73
0
0
TEXT
8
0
62
6
10
120
20
120
30
0.0
40
6
1
Both flags
50
0.0
71
6
72
0
73
0
0
MTEXT
8
0
62
4
10
240
20
0
30
0.0
40
6
41
0.0
71
1
1
Up the page
11
0.0
21
1.0
31
0.0
0
MTEXT
8
0
62
4
10
260
20
0
30
0.0
40
6
41
0.0
71
1
1
Rot 50
50
90.0
0
MTEXT
8
0
10
120
20
100
30
0.0
40
6
41
80
71
1
1
MText line one\Pline two\Pline three
50
0.0
0
MTEXT
8
0
62
4
10
120
20
40
30
0.0
40
6
41
80
71
5
1
{\C1;colored} and \L underlined\l tokens
50
0.0
0
TEXT
8
0
62
2
10
120
20
0
30
0.0
40
6
1

50
0.0
72
0
73
0
0
ENDSEC
0
EOF
